<?xml version="1.0" encoding="utf-8"?>
<!-- Generator: Adobe Illustrator 23.1.0, SVG Export Plug-In . SVG Version: 6.00 Build 0)  -->
<svg version="1.1" id="Layer_1" xmlns="http://www.w3.org/2000/svg" xmlns:xlink="http://www.w3.org/1999/xlink" x="0px" y="0px"
	 viewBox="0 0 650 688" style="enable-background:new 0 0 650 688;" xml:space="preserve">
<style type="text/css">
	.st0{fill:#FF8B61;}
	.st1{fill:#2D374C;}
	.st2{fill:#F1E3CF;}
	.st3{fill:#D33367;}
	.st4{fill:#36868E;}
</style>
<path class="st0" d="M458.8,171.9c0-31.6,25.7-57.3,57.4-57.3s57.4,25.7,57.4,57.3s-25.7,57.3-57.4,57.3S458.8,203.5,458.8,171.9z"
	/>
<path class="st1" d="M482.7,172.2c0-18.6,15.1-33.6,33.7-33.6c18.6,0,33.7,15.1,33.7,33.6c0,18.6-15.1,33.6-33.7,33.6
	C497.8,205.8,482.7,190.8,482.7,172.2z"/>
<path class="st2" d="M498.7,172.2c0-9.8,7.9-17.7,17.7-17.7c9.8,0,17.7,7.9,17.7,17.7c0,9.8-7.9,17.7-17.7,17.7
	C506.6,189.9,498.7,181.9,498.7,172.2z"/>
<path class="st3" d="M430.4,400.3c15.6,0,28.2-12.6,28.2-28.2c0-15.6-12.6-28.2-28.2-28.2c-15.6,0-28.2,12.6-28.2,28.2
	C402.2,387.6,414.8,400.3,430.4,400.3z"/>
<path class="st0" d="M372.3,400.3c15.6,0,28.2-12.6,28.2-28.2c0-15.6-12.6-28.2-28.2-28.2c-15.6,0-28.2,12.6-28.2,28.2
	C344.1,387.6,356.8,400.3,372.3,400.3z"/>
<path class="st0" d="M430.4,457.1c15.6,0,28.2-12.6,28.2-28.2s-12.6-28.2-28.2-28.2c-15.6,0-28.2,12.6-28.2,28.2
	S414.8,457.1,430.4,457.1z"/>
<path class="st4" d="M372.9,458.4c16,0,28.9-12.9,28.9-28.7c0-15.9-12.9-28.7-28.9-28.7c-16,0-28.9,12.9-28.9,28.7v28.7H372.9z"/>
<rect x="486.9" y="371.7" class="st2" width="58.6" height="58.6"/>
<path class="st4" d="M541.1,400.8l-25.3-25.2l-25.3,25.2l25.3,25.2L541.1,400.8z"/>
<path class="st3" d="M562.5,412.8c-19.2,0-34.7,15.5-34.7,34.6h34.7V412.8z"/>
<path class="st3" d="M527.8,354.8c0,19.1,15.5,34.6,34.7,34.6v-34.6H527.8z"/>
<path class="st3" d="M470.6,389.4c19.2,0,34.7-15.5,34.7-34.6h-34.7V389.4z"/>
<path class="st3" d="M505.3,447.4c0-19.1-15.5-34.6-34.7-34.6v34.6H505.3z"/>
<path class="st1" d="M672,57.4l-40.7-40.7l-40.7,40.7L631.3,98L672,57.4z"/>
<path class="st4" d="M645.8,42.9h-29v29h29V42.9z"/>
<path class="st4" d="M516.4,573h57.1v-57c0-31.8-25.8-57.6-57.7-57.6h-57.1v57C458.8,547.2,484.6,573,516.4,573z"/>
<path class="st1" d="M517.3,549.4H551v-33.7c0-18.6-15.1-33.7-33.7-33.7c-18.6,0-33.7,15.1-33.7,33.7
	C483.5,534.3,498.6,549.4,517.3,549.4z"/>
<path class="st0" d="M493.2,515.4h23v-22.9c0-19-15.4-34.4-34.4-34.4h-23V481C458.8,500,474.2,515.4,493.2,515.4z"/>
<path class="st3" d="M630.6,573h-57.1v-57c0-31.8,25.8-57.6,57.7-57.6h57.1v57C688.3,547.2,662.4,573,630.6,573z"/>
<path class="st1" d="M629.7,549.4H596v-33.7c0-18.6,15.1-33.7,33.7-33.7s33.7,15.1,33.7,33.7C663.5,534.3,648.4,549.4,629.7,549.4z"
	/>
<path class="st0" d="M653.8,515.4h-23v-22.9c0-19,15.4-34.4,34.4-34.4h23V481C688.3,500,672.8,515.4,653.8,515.4z"/>
<path class="st2" d="M688.3,171.9v-57.3h-57.4c-31.7,0-57.4,25.7-57.4,57.3s25.7,57.3,57.4,57.3S688.3,203.5,688.3,171.9z"/>
<path class="st3" d="M688.3,114.6h-34.4c-18.9,0-34.3,15.3-34.3,34.3l0,0c0,18.9,15.4,34.3,34.3,34.3l0,0
	c18.9,0,34.3-15.4,34.3-34.3V114.6z"/>
<path class="st4" d="M665.9,172.5c0-19.3-15.7-35-35-35s-35,15.7-35,35c0,19.3,15.7,35,35,35S665.9,191.8,665.9,172.5z"/>
<path class="st1" d="M651.4,172.5c0-11.3-9.2-20.5-20.5-20.5c-11.3,0-20.5,9.2-20.5,20.5c0,11.3,9.2,20.5,20.5,20.5
	C642.2,193,651.4,183.8,651.4,172.5z"/>
<path class="st2" d="M353.2,286.8c0,26.6,21.6,48.1,48.2,48.1c26.6,0,48.2-21.6,48.2-48.1c0-26.6-21.6-48.1-48.2-48.1
	C374.8,238.6,353.2,260.2,353.2,286.8z"/>
<path class="st3" d="M401.4,229.2v1.7c0,30.7-24.9,55.6-55.7,55.6H344v-1.7c0-30.7,24.9-55.6,55.7-55.6H401.4z"/>
<path class="st4" d="M401.4,230.9v-1.7h1.7c30.8,0,55.7,24.9,55.7,55.6v1.7h-1.7C426.3,286.5,401.4,261.6,401.4,230.9z"/>
<path class="st3" d="M458.8,342.1v1.7h-1.7c-30.8,0-55.7-24.9-55.7-55.6v-1.7h1.7C433.8,286.5,458.8,311.4,458.8,342.1z"/>
<path class="st4" d="M344,343.8v-1.7c0-30.7,24.9-55.6,55.7-55.6h1.7v1.7c0,30.7-24.9,55.6-55.7,55.6H344z"/>
<path class="st3" d="M573.5,343.8V229.2h114.8C688.3,292.5,636.9,343.8,573.5,343.8z"/>
<path class="st2" d="M573.5,294.4v-65.2h65.1C638.6,265.2,609.5,294.4,573.5,294.4z"/>
<path class="st1" d="M573.5,259.1v-29.9h29.9C603.4,245.7,590,259.1,573.5,259.1z"/>
<path class="st4" d="M458.8,229.2h114.8v114.6C510.1,343.8,458.8,292.5,458.8,229.2z"/>
<path class="st2" d="M508.4,229.2h65.1v65.2C537.5,294.4,508.4,265.2,508.4,229.2z"/>
<path class="st1" d="M543.6,229.2h29.9v29.9C557,259.1,543.6,245.7,543.6,229.2z"/>
<path class="st4" d="M-114.7,515.7c0-31.6,25.7-57.3,57.4-57.3S0,484.1,0,515.7S-25.7,573-57.3,573S-114.7,547.3-114.7,515.7z"/>
<path class="st3" d="M-69.6,458.4H0l0,69.5C-38.4,527.9-69.6,496.8-69.6,458.4z"/>
<path class="st4" d="M458.8,57.3c0-31.6,25.7-57.3,57.4-57.3s57.4,25.7,57.4,57.3s-25.7,57.3-57.4,57.3S458.8,88.9,458.8,57.3z"/>
<path class="st2" d="M481.9,57c0-19,15.5-34.5,34.5-34.5c19.1,0,34.5,15.4,34.5,34.5c0,19-15.5,34.5-34.5,34.5
	C497.3,91.5,481.9,76.1,481.9,57z"/>
<path class="st1" d="M498.5,56.5c0-10.2,8.3-18.4,18.5-18.4c10.2,0,18.5,8.3,18.5,18.4c0,10.2-8.3,18.4-18.5,18.4
	C506.8,74.9,498.5,66.6,498.5,56.5z"/>
<path class="st3" d="M503.9,0l69.6,0v69.5C535,69.5,503.9,38.4,503.9,0z"/>
<path class="st3" d="M200.9,172.7c15.6,0,28.2,12.6,28.2,28.2c0,15.6-12.6,28.2-28.2,28.2s-28.2-12.6-28.2-28.2
	C172.7,185.4,185.3,172.7,200.9,172.7z"/>
<path class="st0" d="M142.8,172.7c15.6,0,28.2,12.6,28.2,28.2c0,15.6-12.6,28.2-28.2,28.2s-28.2-12.6-28.2-28.2
	C114.6,185.4,127.3,172.7,142.8,172.7z"/>
<path class="st0" d="M200.9,115.9c15.6,0,28.2,12.6,28.2,28.2c0,15.6-12.6,28.2-28.2,28.2s-28.2-12.6-28.2-28.2
	C172.7,128.5,185.3,115.9,200.9,115.9z"/>
<path class="st4" d="M143.4,114.6c16,0,28.9,12.9,28.9,28.7c0,15.9-12.9,28.7-28.9,28.7s-28.9-12.9-28.9-28.7v-28.7H143.4z"/>
<rect x="257.4" y="142.8" class="st2" width="58.6" height="58.6"/>
<path class="st4" d="M311.6,172.2l-25.3,25.2l-25.3-25.2l25.3-25.2L311.6,172.2z"/>
<path class="st3" d="M333,160.2c-19.2,0-34.7-15.5-34.7-34.6H333V160.2z"/>
<path class="st3" d="M298.3,218.2c0-19.1,15.5-34.6,34.7-34.6v34.6H298.3z"/>
<path class="st3" d="M241.1,183.6c19.2,0,34.7,15.5,34.7,34.6h-34.7V183.6z"/>
<path class="st3" d="M275.8,125.6c0,19.1-15.5,34.6-34.7,34.6v-34.6H275.8z"/>
<path class="st2" d="M114.5,57.3V0l57.4,0c31.7,0,57.4,25.7,57.4,57.3s-25.7,57.3-57.4,57.3S114.5,88.9,114.5,57.3z"/>
<path class="st1" d="M114.5,34.3V0l34.3,0c18.9,0,34.3,15.3,34.3,34.3s-15.4,34.3-34.3,34.3C129.9,68.5,114.5,53.2,114.5,34.3z"/>
<path class="st4" d="M136.8,57.9c0-19.3,15.7-35,35-35s35,15.7,35,35c0,19.3-15.7,35-35,35S136.8,77.2,136.8,57.9z"/>
<path class="st1" d="M151.4,57.9c0-11.3,9.2-20.5,20.5-20.5c11.3,0,20.5,9.2,20.5,20.5c0,11.3-9.2,20.5-20.5,20.5
	C160.6,78.4,151.4,69.2,151.4,57.9z"/>
<path class="st4" d="M286.9,0L344,0v57c0,31.8-25.8,57.6-57.7,57.6h-57.1v-57C229.3,25.8,255.1,0,286.9,0z"/>
<path class="st1" d="M287.8,23.6h33.7v33.7c0,18.6-15.1,33.7-33.7,33.7C269.1,91,254,75.9,254,57.3S269.1,23.6,287.8,23.6z"/>
<path class="st0" d="M263.7,57.6h23v22.9c0,19-15.4,34.4-34.4,34.4h-22.9V92C229.3,73,244.7,57.6,263.7,57.6z"/>
<path class="st2" d="M344,286.5v57.3h-57.4c-31.7,0-57.4-25.7-57.4-57.3s25.7-57.3,57.4-57.3S344,254.9,344,286.5z"/>
<path class="st3" d="M344,343.8h-34.4c-18.9,0-34.3-15.3-34.3-34.3l0,0c0-18.9,15.4-34.3,34.3-34.3l0,0c18.9,0,34.3,15.4,34.3,34.3
	V343.8z"/>
<path class="st4" d="M321.7,285.9c0,19.3-15.7,35-35,35s-35-15.7-35-35c0-19.3,15.7-35,35-35S321.7,266.6,321.7,285.9z"/>
<path class="st1" d="M307.1,285.9c0,11.3-9.2,20.5-20.5,20.5c-11.3,0-20.5-9.2-20.5-20.5c0-11.3,9.2-20.5,20.5-20.5
	C298,265.4,307.1,274.6,307.1,285.9z"/>
<path class="st2" d="M582.8,401.2c0,26.6,21.6,48.1,48.2,48.1s48.2-21.5,48.2-48.1c0-26.6-21.6-48.1-48.2-48.1
	S582.8,374.7,582.8,401.2z"/>
<path class="st3" d="M631.3,401.4c31.5,0,57,25.5,57,57C656.8,458.4,631.3,432.9,631.3,401.4z"/>
<path class="st4" d="M575.2,458.4h-1.7v-1.7c0-30.6,24.8-55.4,55.3-55.4h1.7v1.7C630.5,433.6,605.7,458.4,575.2,458.4z"/>
<path class="st3" d="M573.5,345.5v-1.7h1.7c30.5,0,55.3,24.8,55.3,55.4v1.7h-1.7C598.3,400.8,573.5,376,573.5,345.5z"/>
<path class="st4" d="M633,400.8h-1.7v-1.7c0-30.6,24.8-55.4,55.3-55.4h1.7v1.7C688.3,376,663.5,400.8,633,400.8z"/>
<path class="st4" d="M57.1,28.9L28.2,0l57.9,0L57.1,28.9z"/>
<path class="st2" d="M114.5,114.6H-0.2V0L114.5,114.6z"/>
<path class="st3" d="M114.5,114.6H-0.2L114.5,0V114.6z"/>
<path class="st0" d="M401.7,143.5l-29-28.9h57.9L401.7,143.5z"/>
<path class="st4" d="M459,229.2H344.3V114.6L459,229.2z"/>
<path class="st2" d="M459,229.2H344.3L459,114.6V229.2z"/>
<path class="st0" d="M401.7,85.7l29,28.9h-57.9L401.7,85.7z"/>
<path class="st4" d="M344.3,0L459,0v114.6L344.3,0z"/>
<path class="st2" d="M344.3,0L459,0L344.3,114.6V0z"/>
<path class="st2" d="M574,630.7v-57.3h57.4c31.7,0,57.4,25.7,57.4,57.3V688h-57.4C599.7,688,574,662.3,574,630.7z"/>
<path class="st4" d="M597.6,629.5v-33.7h33.7c18.6,0,33.7,15.1,33.7,33.7s-15.1,33.7-33.7,33.7S597.6,648.2,597.6,629.5z"/>
<path class="st3" d="M631.7,653.6v-22.9h23c19,0,34.4,15.4,34.4,34.4V688h-23C647.1,688,631.7,672.6,631.7,653.6z"/>
</svg>
